<svg id="Layer_1" data-name="Layer 1" xmlns="http://www.w3.org/2000/svg" viewBox="0 0 479.26 591.77"><defs><style>.cls-1{fill:#fff;}</style></defs><title>condolo</title><path d="M249.3,155.72H728.56V747.49H249.3ZM697.13,602.77c-47.06,1-85.74-16.94-120.24-45.39-28.1-23.17-49.44-52-68.8-82.57-4.93-7.78-5.11-12.68.93-20.29,26.72-33.66,48.76-70,60.72-111.84,13.57-47.46,1-87.93-32-123-15.1-16.09-33.77-24.78-56.2-23.47-12.7.74-25.37,2.06-38,3.51-38.44,4.38-59.76,22.47-68.71,60.21-10.22,43.11-6.16,85.74,8.54,127.2,8.25,23.28,18.11,46,27.67,68.8,3.14,7.48,2.53,11.77-4.3,17.75-26.17,22.91-51.87,46.43-76.63,70.86-19.92,19.65-28,44.57-22.2,72.14,4.31,20.39,11.24,40.24,17.51,60.17,2,6.43,5.66,12.37,9.73,21,23.64-64.58,66-112.47,109.07-161.4,2.27,4.87,3.8,8.67,5.73,12.26,16.3,30.29,31.51,61.26,49.39,90.59,14.82,24.3,35.64,43.55,62.47,54.84,27.81,11.7,54.86,11.27,79.85-7.43C669.81,665.63,684.76,635.83,697.13,602.77Z" transform="translate(-249.3 -155.72)"/><path class="cls-1" d="M697.13,602.77c-12.37,33.06-27.32,62.86-55.46,83.91-25,18.7-52,19.13-79.85,7.43-26.83-11.29-47.65-30.54-62.47-54.84C481.47,609.94,466.26,579,450,548.68c-1.93-3.59-3.46-7.39-5.73-12.26-43,48.93-85.43,96.82-109.07,161.4-4.07-8.65-7.71-14.59-9.73-21-6.27-19.93-13.2-39.78-17.51-60.17-5.83-27.57,2.28-52.49,22.2-72.14,24.76-24.43,50.46-47.95,76.63-70.86,6.83-6,7.44-10.27,4.3-17.75-9.56-22.8-19.42-45.52-27.67-68.8-14.7-41.46-18.76-84.09-8.54-127.2,9-37.74,30.27-55.83,68.71-60.21,12.63-1.45,25.3-2.77,38-3.51,22.43-1.31,41.1,7.38,56.2,23.47,33,35.12,45.56,75.59,32,123.05-12,41.85-34,78.18-60.72,111.84-6,7.61-5.86,12.51-.93,20.29,19.36,30.57,40.7,59.4,68.8,82.57C611.39,585.83,650.07,603.8,697.13,602.77ZM467.49,402.7c20.73-29.51,37.85-58.44,47.34-91.2,3.11-10.74,4.5-22,6.6-33,1.09-5.69-.93-9-6.95-10.51-28-7.05-55.72-6.59-83,2.73-2.82,1-6.23,6.6-5.83,9.59C431.38,323.11,447.53,362.4,467.49,402.7Z" transform="translate(-249.3 -155.72)"/><path d="M467.49,402.7c-20-40.3-36.11-79.59-41.85-122.38-.4-3,3-8.63,5.83-9.59,27.29-9.32,55-9.78,83-2.73,6,1.52,8,4.82,6.95,10.51-2.1,11-3.49,22.25-6.6,33C505.34,344.26,488.22,373.19,467.49,402.7Z" transform="translate(-249.3 -155.72)"/></svg>